<svg>
    <svg id="check-circle" viewBox="0 0 24 24" fill="none"
        xmlns="http://www.w3.org/2000/svg">
        <path fill-rule="evenodd" clip-rule="evenodd"
            d="M1 12C1 5.92472 5.92472 1 12 1C18.0753 1 23 5.92472 23 12C23 18.0753 18.0753 23 12 23C5.92472 23 1 18.0753 1 12ZM12 3C7.02928 3 3 7.02928 3 12C3 16.9707 7.02928 21 12 21C16.9707 21 21 16.9707 21 12C21 7.02928 16.9707 3 12 3Z"
            fill="currentcolor" />
        <path fill-rule="evenodd" clip-rule="evenodd"
            d="M16.169 8.75671C16.5795 9.12617 16.6128 9.75846 16.2433 10.169L11.7433 15.169C11.5653 15.3668 11.3158 15.4854 11.05 15.4988C10.7843 15.5121 10.5242 15.4189 10.3273 15.2399L7.82729 12.9669C7.41865 12.5954 7.38858 11.9629 7.76011 11.5543C8.13164 11.1457 8.76409 11.1156 9.17272 11.4871L10.9291 13.084L14.7567 8.83104C15.1262 8.42053 15.7585 8.38726 16.169 8.75671Z"
            fill="currentcolor" />
    </svg>
    <svg id="show" viewBox="0 0 24 24" fill="none"
        xmlns="http://www.w3.org/2000/svg">
        <path fill-rule="evenodd" clip-rule="evenodd"
            d="M2.57424 12.7075C2.39475 12.4296 2.24986 12.1889 2.14057 12C2.24986 11.8111 2.39475 11.5704 2.57424 11.2925C3.03526 10.5787 3.71799 9.6294 4.60436 8.68394C6.39534 6.77356 8.89933 5 11.9998 5C15.1003 5 17.6043 6.77356 19.3953 8.68394C20.2817 9.6294 20.9644 10.5787 21.4254 11.2925C21.6049 11.5704 21.7498 11.8111 21.8591 12C21.7498 12.1889 21.6049 12.4296 21.4254 12.7075C20.9644 13.4213 20.2817 14.3706 19.3953 15.3161C17.6043 17.2264 15.1003 19 11.9998 19C8.89933 19 6.39534 17.2264 4.60436 15.3161C3.71799 14.3706 3.03526 13.4213 2.57424 12.7075ZM23.8939 11.5521C23.8939 11.5521 24.0461 12.1426 23.8939 12.4479L23.8923 12.4511L23.8888 12.458L23.8775 12.4802C23.8679 12.4987 23.8545 12.5247 23.8371 12.5576C23.8023 12.6233 23.7518 12.7168 23.6859 12.834C23.554 13.0684 23.36 13.3985 23.1055 13.7925C22.5978 14.5787 21.843 15.6294 20.8544 16.6839C18.8953 18.7736 15.8993 21 11.9998 21C8.10032 21 5.1043 18.7736 3.14529 16.6839C2.15666 15.6294 1.40189 14.5787 0.89416 13.7925C0.639674 13.3985 0.445616 13.0684 0.313795 12.834C0.247847 12.7168 0.197364 12.6233 0.162577 12.5576C0.145181 12.5247 0.131699 12.4987 0.122162 12.4802L0.110814 12.458L0.107363 12.4511L0.106194 12.4488L0.105749 11.5521L0.107363 11.5489L0.110814 11.542L0.122162 11.5198C0.131699 11.5013 0.145181 11.4753 0.162577 11.4424C0.197364 11.3767 0.247847 11.2832 0.313795 11.166C0.445616 10.9316 0.639674 10.6015 0.89416 10.2075C1.40189 9.42131 2.15666 8.3706 3.14529 7.31606C5.1043 5.22644 8.10032 3 11.9998 3C15.8993 3 18.8953 5.22644 20.8544 7.31606C21.843 8.3706 22.5978 9.42131 23.1055 10.2075C23.36 10.6015 23.554 10.9316 23.6859 11.166C23.7518 11.2832 23.8023 11.3767 23.8371 11.4424C23.8545 11.4753 23.8679 11.5013 23.8775 11.5198L23.8888 11.542L23.8923 11.5489L23.8939 11.5521ZM23.8939 12.4479C24.0347 12.1664 24.0347 11.8336 23.8939 11.5521C23.8939 11.5521 24.0461 12.1426 23.8939 12.4479ZM0.105397 12.4472L0.105573 11.9996L0.105749 11.5521C-0.0350147 11.8336 -0.0353668 12.1657 0.105397 12.4472ZM11.9998 8C10.939 8 9.92154 8.42143 9.1714 9.17157C8.42125 9.92172 7.99982 10.9391 7.99982 12C7.99982 13.0609 8.42125 14.0783 9.1714 14.8284C9.92154 15.5786 10.939 16 11.9998 16C13.0607 16 14.0781 15.5786 14.8283 14.8284C15.5784 14.0783 15.9998 13.0609 15.9998 12C15.9998 10.9391 15.5784 9.92172 14.8283 9.17157C14.0781 8.42143 13.0607 8 11.9998 8ZM13.414 13.4142C13.039 13.7893 12.5303 14 11.9998 14C11.4694 14 10.9607 13.7893 10.5856 13.4142C10.2105 13.0391 9.99982 12.5304 9.99982 12C9.99982 11.4696 10.2105 10.9609 10.5856 10.5858C10.9607 10.2107 11.4694 10 11.9998 10C12.5303 10 13.039 10.2107 13.414 10.5858C13.7891 10.9609 13.9998 11.4696 13.9998 12C13.9998 12.5304 13.7891 13.0391 13.414 13.4142Z"
            fill="currentcolor" />
    </svg>
    <svg id="hide" viewBox="0 0 24 24" fill="none"
        xmlns="http://www.w3.org/2000/svg">
        <path fill-rule="evenodd" clip-rule="evenodd"
            d="M0.292893 0.292893C0.683418 -0.0976311 1.31658 -0.0976311 1.70711 0.292893L18.6471 17.2329L23.7071 22.2929C24.0976 22.6834 24.0976 23.3166 23.7071 23.7071C23.3166 24.0976 22.6834 24.0976 22.2929 23.7071L17.8261 19.2403C16.0962 20.3536 14.0848 20.966 12.0163 20.9999L12 21C8.10049 21 5.10448 18.7736 3.14546 16.6839C2.15683 15.6294 1.40207 14.5787 0.894336 13.7925C0.63985 13.3985 0.445792 13.0684 0.313971 12.834C0.248023 12.7168 0.19754 12.6233 0.162753 12.5576C0.145357 12.5247 0.131875 12.4987 0.122338 12.4802L0.11099 12.458L0.107539 12.4511L0.10637 12.4488C0.105243 12.4466 0.105573 12.4472 0.105573 12.4472C-0.0397387 12.1566 -0.0347895 11.8135 0.118844 11.5272C1.25035 9.4185 2.7597 7.53966 4.56848 5.98269L0.292893 1.70711C-0.097631 1.31658 -0.097631 0.683417 0.292893 0.292893ZM5.9871 7.40131C4.45031 8.70137 3.14935 10.2582 2.14257 12.0032C2.25165 12.1915 2.39592 12.4311 2.57441 12.7075C3.03543 13.4213 3.71817 14.3706 4.60454 15.3161C6.39395 17.2248 8.89512 18.9969 11.9918 19C13.5373 18.9733 15.0437 18.5524 16.3714 17.7856L14.0488 15.463C12.267 16.5678 9.79005 16.1033 8.58772 14.2835C7.71625 12.9644 7.73675 11.2513 8.53883 9.95305L5.9871 7.40131ZM10.0357 11.4499C9.85312 12.0195 9.91725 12.6676 10.2564 13.181C10.7564 13.9378 11.7265 14.2193 12.5495 13.9637L10.0357 11.4499ZM17.0856 6.70102C14.9633 5.29968 12.557 4.6451 10.1279 5.21368C9.59016 5.33955 9.05219 5.00566 8.92632 4.46791C8.80045 3.93016 9.13434 3.39219 9.67209 3.26632C12.7656 2.54221 15.7301 3.40934 18.1876 5.03203C20.6382 6.65016 22.6448 9.0535 23.8944 11.5528C24.0395 11.8429 24.0348 12.1853 23.8819 12.4714C23.2421 13.6684 22.4791 14.7954 21.6051 15.8339C21.2495 16.2564 20.6187 16.3107 20.1961 15.9551C19.7736 15.5995 19.7193 14.9687 20.0749 14.5461C20.7468 13.7476 21.3457 12.8909 21.8646 11.9862C20.7474 9.93812 19.0667 8.00914 17.0856 6.70102Z"
            fill="currentcolor" />

    </svg>
    <svg id="close" viewBox="0 0 24 24" fill="none" xmlns="http://www.w3.org/2000/svg">
        <path fill-rule="evenodd" clip-rule="evenodd"
            d="M8.70708 7.29304C8.51848 7.11088 8.26588 7.01009 8.00368 7.01237C7.74148 7.01465 7.49067 7.11981 7.30526 7.30522C7.11985 7.49063 7.01469 7.74144 7.01241 8.00364C7.01013 8.26584 7.11092 8.51844 7.29308 8.70704L10.5861 12L7.29308 15.293C7.19757 15.3853 7.12139 15.4956 7.06898 15.6176C7.01657 15.7396 6.98898 15.8709 6.98783 16.0036C6.98668 16.1364 7.01198 16.2681 7.06226 16.391C7.11254 16.5139 7.18679 16.6255 7.28069 16.7194C7.37458 16.8133 7.48623 16.8876 7.60913 16.9379C7.73202 16.9881 7.8637 17.0134 7.99648 17.0123C8.12926 17.0111 8.26048 16.9836 8.38249 16.9311C8.50449 16.8787 8.61483 16.8026 8.70708 16.707L12.0001 13.414L15.2931 16.707C15.4817 16.8892 15.7343 16.99 15.9965 16.9877C16.2587 16.9854 16.5095 16.8803 16.6949 16.6949C16.8803 16.5095 16.9855 16.2586 16.9878 15.9964C16.99 15.7342 16.8892 15.4816 16.7071 15.293L13.4141 12L16.7071 8.70704C16.8892 8.51844 16.99 8.26584 16.9878 8.00364C16.9855 7.74144 16.8803 7.49063 16.6949 7.30522C16.5095 7.11981 16.2587 7.01465 15.9965 7.01237C15.7343 7.01009 15.4817 7.11088 15.2931 7.29304L12.0001 10.586L8.70708 7.29304Z"
            fill="currentcolor" />
    </svg>
    <svg id="chevron-left" viewBox="0 0 24 24" fill="none" xmlns="http://www.w3.org/2000/svg">
        <path fill-rule="evenodd" clip-rule="evenodd"
            d="M15.7071 5.29289C16.0976 5.68342 16.0976 6.31658 15.7071 6.70711L10.4142 12L15.7071 17.2929C16.0976 17.6834 16.0976 18.3166 15.7071 18.7071C15.3166 19.0976 14.6834 19.0976 14.2929 18.7071L8.29289 12.7071C7.90237 12.3166 7.90237 11.6834 8.29289 11.2929L14.2929 5.29289C14.6834 4.90237 15.3166 4.90237 15.7071 5.29289Z"
            fill="currentcolor" />
    </svg>
    <svg id="chevron-down" viewBox="0 0 24 24" fill="none" xmlns="http://www.w3.org/2000/svg">
        <path fill-rule="evenodd" clip-rule="evenodd"
            d="M5.29289 9.29607C5.68342 8.90131 6.31658 8.90131 6.70711 9.29607L12 14.5596L17.2929 9.29607C17.6834 8.90131 18.3166 8.90131 18.7071 9.29607C19.0976 9.69083 19.0976 10.3309 18.7071 10.7256L12.7071 16.7039C12.3166 17.0987 11.6834 17.0987 11.2929 16.7039L5.29289 10.7256C4.90237 10.3309 4.90237 9.69083 5.29289 9.29607Z"
            fill="currentcolor" />
    </svg>
    <svg id="remove" viewBox="0 0 24 24" fill="none" xmlns="http://www.w3.org/2000/svg">
        <path fill-rule="evenodd" clip-rule="evenodd"
            d="M6.70708 5.29304C6.51848 5.11088 6.26588 5.01009 6.00368 5.01237C5.74148 5.01465 5.49067 5.11981 5.30526 5.30522C5.11985 5.49063 5.01469 5.74144 5.01241 6.00364C5.01013 6.26584 5.11092 6.51844 5.29308 6.70704L10.5861 12L5.29308 17.293C5.19757 17.3853 5.12139 17.4956 5.06898 17.6176C5.01657 17.7396 4.98898 17.8709 4.98783 18.0036C4.98668 18.1364 5.01198 18.2681 5.06226 18.391C5.11254 18.5139 5.18679 18.6255 5.28069 18.7194C5.37458 18.8133 5.48623 18.8876 5.60913 18.9379C5.73202 18.9881 5.8637 19.0134 5.99648 19.0123C6.12926 19.0111 6.26048 18.9836 6.38249 18.9311C6.50449 18.8787 6.61483 18.8026 6.70708 18.707L12.0001 13.414L17.2931 18.707C17.4817 18.8892 17.7343 18.99 17.9965 18.9877C18.2587 18.9854 18.5095 18.8803 18.6949 18.6949C18.8803 18.5095 18.9855 18.2586 18.9878 17.9964C18.99 17.7342 18.8892 17.4816 18.7071 17.293L13.4141 12L18.7071 6.70704C18.8892 6.51844 18.99 6.26584 18.9878 6.00364C18.9855 5.74144 18.8803 5.49063 18.6949 5.30522C18.5095 5.11981 18.2587 5.01465 17.9965 5.01237C17.7343 5.01009 17.4817 5.11088 17.2931 5.29304L12.0001 10.586L6.70708 5.29304Z"
            fill="currentcolor" />
    </svg>
    <svg id="heart" viewBox="0 0 24 24" fill="none" xmlns="http://www.w3.org/2000/svg">
        <path fill-rule="evenodd" clip-rule="evenodd"
            d="M12.4512 4.27604C13.7099 3.09823 15.2329 2.00012 17.401 2.00012C19.1112 2.00012 20.7889 2.69525 21.998 3.90468C24.4813 6.38725 24.5071 10.5911 21.9981 13.0991C21.9981 13.0991 21.9982 13.099 21.9981 13.0991L13.1581 21.9391C12.9706 22.1266 12.7163 22.2319 12.451 22.2319C12.1858 22.2319 11.9315 22.1266 11.7439 21.9391L2.90393 13.0991C0.394653 10.5898 0.394653 6.41412 2.90393 3.90484C4.12316 2.68561 5.77679 2.00066 7.50104 2.00066C9.6732 2.00066 11.1922 3.0971 12.4512 4.27604ZM17.401 4.00012C15.7157 4.00012 14.5743 4.96286 13.1581 6.37905C12.9706 6.56659 12.7163 6.67195 12.451 6.67195C12.1858 6.67195 11.9315 6.56659 11.7439 6.37905C10.325 4.96012 9.19044 4.00066 7.50104 4.00066C6.30722 4.00066 5.1623 4.4749 4.31815 5.31905C2.58992 7.04728 2.58992 9.95661 4.31815 11.6848L12.451 19.8177L20.5839 11.6848C22.3068 9.96274 22.2912 7.02553 20.5841 5.31922C19.7501 4.48487 18.5807 4.00012 17.401 4.00012Z"
            fill="currentcolor" />
    </svg>
    <svg id="login" viewBox="0 0 24 24" fill="none" xmlns="http://www.w3.org/2000/svg">
        <path fill-rule="evenodd" clip-rule="evenodd"
            d="M14 3C14 2.44772 14.4477 2 15 2H19C19.7957 2 20.5587 2.31607 21.1213 2.87868C21.6839 3.44129 22 4.20435 22 5V19C22 19.7957 21.6839 20.5587 21.1213 21.1213C20.5587 21.6839 19.7957 22 19 22H15C14.4477 22 14 21.5523 14 21C14 20.4477 14.4477 20 15 20H19C19.2652 20 19.5196 19.8946 19.7071 19.7071C19.8946 19.5196 20 19.2652 20 19V5C20 4.73478 19.8946 4.48043 19.7071 4.29289C19.5196 4.10536 19.2652 4 19 4H15C14.4477 4 14 3.55228 14 3ZM9.29289 6.29289C9.68342 5.90237 10.3166 5.90237 10.7071 6.29289L15.7071 11.2929C16.0976 11.6834 16.0976 12.3166 15.7071 12.7071L10.7071 17.7071C10.3166 18.0976 9.68342 18.0976 9.29289 17.7071C8.90237 17.3166 8.90237 16.6834 9.29289 16.2929L12.5858 13H3C2.44772 13 2 12.5523 2 12C2 11.4477 2.44772 11 3 11H12.5858L9.29289 7.70711C8.90237 7.31658 8.90237 6.68342 9.29289 6.29289Z"
            fill="currentcolor" />
    </svg>
</svg>